<svg width="50" height="50" viewBox="0 0 50 50" fill="none" xmlns="http://www.w3.org/2000/svg">
<rect width="50" height="50" fill="#4A6FA5"/>
<path d="M0 49.96V0H49.96L0 49.96Z" fill="#0C7653"/>
<path d="M18.936 37C18.6693 37 18.536 36.8667 18.536 36.6V16.072C18.536 15.8053 18.6693 15.672 18.936 15.672H28.104C28.36 15.672 28.5733 15.7573 28.744 15.928L31.944 19.128C32.1253 19.3093 32.216 19.5227 32.216 19.768V26.008C32.216 26.264 32.1253 26.4773 31.944 26.648L28.744 29.848C28.5733 30.0293 28.36 30.12 28.104 30.12H24.28V36.6C24.28 36.8667 24.1467 37 23.88 37H18.936ZM25.224 25.08C25.9707 25.08 26.4987 24.92 26.808 24.6C27.1173 24.2693 27.272 23.6987 27.272 22.888C27.272 22.0773 27.1173 21.5067 26.808 21.176C26.4987 20.8453 25.9707 20.68 25.224 20.68C24.488 20.68 23.9653 20.8453 23.656 21.176C23.3467 21.5067 23.192 22.0773 23.192 22.888C23.192 23.6987 23.3467 24.2693 23.656 24.6C23.9653 24.92 24.488 25.08 25.224 25.08Z" fill="white"/>
</svg>
