<svg width="50" height="50" viewBox="0 0 50 50" fill="none" xmlns="http://www.w3.org/2000/svg">
<rect width="50" height="50" fill="#444444"/>
<rect width="50" height="50" fill="#BEFF00"/>
<path d="M0 49.96V0H49.96L0 49.96Z" fill="#6D8134"/>
<path d="M19.32 37C19.0533 37 18.92 36.8667 18.92 36.6V16.072C18.92 15.8053 19.0533 15.672 19.32 15.672H28.168C28.424 15.672 28.6373 15.7573 28.808 15.928L32.008 19.128C32.1893 19.3093 32.28 19.5227 32.28 19.768V25.288C32.28 25.544 32.1893 25.7573 32.008 25.928L28.808 29.128C28.6373 29.3093 28.424 29.4 28.168 29.4H24.248V36.6C24.248 36.8667 24.1147 37 23.848 37H19.32ZM25.448 25.048C26.3333 25.048 26.936 24.872 27.256 24.52C27.5867 24.168 27.752 23.5013 27.752 22.52C27.752 21.5387 27.5867 20.872 27.256 20.52C26.936 20.168 26.3333 19.992 25.448 19.992C24.5733 19.992 23.9707 20.168 23.64 20.52C23.32 20.872 23.16 21.5387 23.16 22.52C23.16 23.5013 23.32 24.168 23.64 24.52C23.9707 24.872 24.5733 25.048 25.448 25.048Z" fill="white"/>
<path d="M24.9334 25.0248C25.093 25.0403 25.2645 25.0481 25.448 25.0481C26.3334 25.0481 26.936 24.8721 27.256 24.5201C27.5867 24.1681 27.752 23.5014 27.752 22.5201C27.752 22.4199 27.7503 22.3229 27.7469 22.2293L31.4398 18.5598L32.008 19.1281C32.1894 19.3094 32.28 19.5228 32.28 19.7681V25.2881C32.28 25.5441 32.1894 25.7574 32.008 25.9281L28.808 29.1281C28.6374 29.3094 28.424 29.4001 28.168 29.4001H24.248V36.6001C24.248 36.8668 24.1147 37.0001 23.848 37.0001H19.32C19.0534 37.0001 18.92 36.8668 18.92 36.6001V31L24.9334 25.0248Z" fill="black"/>
<path d="M24.9334 25.0249L18.92 31V16.0721C18.92 15.8055 19.0534 15.6721 19.32 15.6721H28.168C28.424 15.6721 28.6374 15.7575 28.808 15.9281L31.4398 18.5598L27.7469 22.2293C27.7166 21.4059 27.5529 20.8362 27.256 20.5201C26.936 20.1681 26.3334 19.9921 25.448 19.9921C24.5734 19.9921 23.9707 20.1681 23.64 20.5201C23.32 20.8721 23.16 21.5388 23.16 22.5201C23.16 23.5015 23.32 24.1681 23.64 24.5201C23.9013 24.7983 24.3324 24.9665 24.9334 25.0249Z" fill="black"/>
</svg>
