<svg width="25" height="23" viewBox="0 0 25 23" fill="none" xmlns="http://www.w3.org/2000/svg">
<path d="M12.5 23C11.0329 23 9.65884 22.7222 8.37793 22.1666C7.09703 21.611 5.982 20.8599 5.03286 19.9134C4.08372 18.9669 3.33059 17.8549 2.77347 16.5775C2.21635 15.3002 1.9374 13.9295 1.93662 12.4656C1.93584 11.0018 2.21479 9.63151 2.77347 8.3549C3.33216 7.0783 4.0849 5.96634 5.03169 5.01903C5.97848 4.07172 7.09351 3.32066 8.37676 2.76585C9.66002 2.21104 11.0344 1.93286 12.5 1.9313C13.9656 1.92974 15.34 2.20792 16.6232 2.76585C17.9065 3.32378 19.0215 4.07484 19.9683 5.01903C20.9151 5.96322 21.6682 7.07517 22.2277 8.3549C22.7872 9.63463 23.0657 11.0049 23.0634 12.4656C23.061 13.9264 22.7825 15.297 22.2277 16.5775C21.6729 17.858 20.9198 18.97 19.9683 19.9134C19.0168 20.8568 17.9018 21.6079 16.6232 22.1666C15.3447 22.7253 13.9703 23.0031 12.5 23ZM4.98826 0L6.63146 1.63868L1.64319 6.61322L0 4.97455L4.98826 0ZM20.0117 0L25 4.97455L23.3568 6.61322L18.3685 1.63868L20.0117 0ZM12.5 20.659C14.7887 20.659 16.7304 19.8643 18.3251 18.2747C19.9198 16.6852 20.7167 14.7489 20.716 12.4656C20.7152 10.1824 19.9182 8.24644 18.3251 6.6577C16.732 5.06897 14.7903 4.27382 12.5 4.27226C10.2097 4.2707 8.26839 5.06585 6.67606 6.6577C5.08372 8.24956 4.28639 10.1855 4.28404 12.4656C4.28169 14.7457 5.07903 16.6821 6.67606 18.2747C8.27308 19.8674 10.2144 20.6621 12.5 20.659ZM8.97887 17.1476H11.3263V7.78371H8.97887V17.1476ZM13.6737 17.1476H16.0211V7.78371H13.6737V17.1476Z" fill="black"/>
</svg>
