<svg width="20" height="23" viewBox="0 0 20 23" fill="none" xmlns="http://www.w3.org/2000/svg">
<path d="M8.75 23C6.22917 22.6883 4.14083 21.5926 2.485 19.7127C0.829167 17.8328 0.000833333 15.625 0 13.0894C0 11.7182 0.270833 10.4042 0.8125 9.14764C1.35417 7.89106 2.125 6.79487 3.125 5.85908L4.90625 7.6355C4.11458 8.34191 3.51583 9.1626 3.11 10.0976C2.70417 11.0325 2.50083 12.0298 2.5 13.0894C2.5 14.9178 3.08333 16.5334 4.25 17.9363C5.41667 19.3391 6.91667 20.196 8.75 20.5068V23ZM11.25 23V20.5068C13.0625 20.1743 14.5575 19.3121 15.735 17.9201C16.9125 16.528 17.5008 14.9178 17.5 13.0894C17.5 11.0117 16.7708 9.24571 15.3125 7.79133C13.8542 6.33695 12.0833 5.60976 10 5.60976H9.90625L11.2812 6.98103L9.53125 8.72629L5.15625 4.36314L9.53125 0L11.2812 1.74526L9.90625 3.11653H10C12.7917 3.11653 15.1562 4.08266 17.0938 6.0149C19.0312 7.94715 20 10.3053 20 13.0894C20 15.6034 19.1721 17.8008 17.5163 19.6815C15.8604 21.5622 13.7717 22.6684 11.25 23Z" fill="black"/>
</svg>
