<svg width="19" height="23" viewBox="0 0 19 23" fill="none" xmlns="http://www.w3.org/2000/svg">
<path d="M6.33333 2.19048V0H12.6667V2.19048H6.33333ZM9.5 23C8.19815 23 6.97089 22.7401 5.81822 22.2202C4.66556 21.7003 3.65856 20.9928 2.79722 20.0976C1.93589 19.2024 1.25435 18.1572 0.752611 16.9619C0.25087 15.7667 0 14.4936 0 13.1429C0 11.7921 0.25087 10.5187 0.752611 9.32266C1.25435 8.12666 1.93589 7.08181 2.79722 6.18809C3.65856 5.29438 4.66591 4.58722 5.81928 4.06662C6.97265 3.54601 8.19956 3.28571 9.5 3.28571C10.5907 3.28571 11.6375 3.46825 12.6403 3.83333C13.6431 4.19841 14.5843 4.72778 15.4639 5.42143L16.9417 3.88809L18.4194 5.42143L16.9417 6.95476C17.6102 7.86746 18.1204 8.84404 18.4722 9.88452C18.8241 10.925 19 12.0111 19 13.1429C19 14.4936 18.7491 15.767 18.2474 16.963C17.7456 18.159 17.0641 19.2039 16.2028 20.0976C15.3414 20.9913 14.3341 21.6989 13.1807 22.2202C12.0274 22.7415 10.8004 23.0015 9.5 23ZM9.5 20.8095C11.5407 20.8095 13.2824 20.0611 14.725 18.5643C16.1676 17.0675 16.8889 15.2603 16.8889 13.1429C16.8889 11.0254 16.1676 9.21825 14.725 7.72143C13.2824 6.2246 11.5407 5.47619 9.5 5.47619C7.45926 5.47619 5.71759 6.2246 4.275 7.72143C2.83241 9.21825 2.11111 11.0254 2.11111 13.1429C2.11111 15.2603 2.83241 17.0675 4.275 18.5643C5.71759 20.0611 7.45926 20.8095 9.5 20.8095ZM7.38889 17.5238L13.7222 13.1429L7.38889 8.7619V17.5238Z" fill="black"/>
</svg>
