<svg width="20" height="23" viewBox="0 0 20 23" fill="none" xmlns="http://www.w3.org/2000/svg">
<path d="M6.66667 2.19048V0H13.3333V2.19048H6.66667ZM8.88889 14.2381H11.1111V7.66666H8.88889V14.2381ZM10 23C8.62963 23 7.33778 22.7401 6.12444 22.2202C4.91111 21.7003 3.85111 20.9928 2.94444 20.0976C2.03778 19.2024 1.32037 18.1572 0.792222 16.9619C0.264074 15.7667 0 14.4936 0 13.1429C0 11.7921 0.264074 10.5187 0.792222 9.32266C1.32037 8.12666 2.03778 7.08181 2.94444 6.18809C3.85111 5.29438 4.91148 4.58722 6.12556 4.06662C7.33963 3.54601 8.63111 3.28571 10 3.28571C11.1481 3.28571 12.25 3.46825 13.3056 3.83333C14.3611 4.19841 15.3519 4.72778 16.2778 5.42143L17.8333 3.88809L19.3889 5.42143L17.8333 6.95476C18.537 7.86746 19.0741 8.84405 19.4444 9.88452C19.8148 10.925 20 12.0111 20 13.1429C20 14.4936 19.7359 15.767 19.2078 16.963C18.6796 18.159 17.9622 19.2039 17.0556 20.0976C16.1489 20.9913 15.0885 21.6989 13.8744 22.2202C12.6604 22.7415 11.3689 23.0015 10 23ZM10 20.8095C12.1481 20.8095 13.9815 20.0611 15.5 18.5643C17.0185 17.0675 17.7778 15.2603 17.7778 13.1429C17.7778 11.0254 17.0185 9.21825 15.5 7.72143C13.9815 6.2246 12.1481 5.47619 10 5.47619C7.85185 5.47619 6.01852 6.2246 4.5 7.72143C2.98148 9.21825 2.22222 11.0254 2.22222 13.1429C2.22222 15.2603 2.98148 17.0675 4.5 18.5643C6.01852 20.0611 7.85185 20.8095 10 20.8095Z" fill="black"/>
</svg>
