<svg width="30" height="30" viewBox="0 0 30 30" fill="none" xmlns="http://www.w3.org/2000/svg">
<g clip-path="url(#clip0_20_896)">
<path d="M1.23756 3.35001C1.23756 4.22854 1.58656 5.07108 2.20777 5.6923C2.82899 6.31351 3.67153 6.66251 4.55006 6.66251C5.42859 6.66251 6.27114 6.31351 6.89235 5.6923C7.51357 5.07108 7.86256 4.22854 7.86256 3.35001C7.86256 2.47148 7.51357 1.62893 6.89235 1.00771C6.27114 0.386501 5.42859 0.0375061 4.55006 0.0375061C3.67153 0.0375061 2.82899 0.386501 2.20777 1.00771C1.58656 1.62893 1.23756 2.47148 1.23756 3.35001ZM14.2126 11.9H8.60006L4.47506 8.61251C4.18024 8.37347 3.82417 8.22211 3.44747 8.17568C3.07076 8.12925 2.6886 8.18962 2.34455 8.34991C2.00051 8.51021 1.70844 8.76397 1.50166 9.08224C1.29488 9.40052 1.18171 9.77051 1.17506 10.15L0.237563 20C0.188575 20.4906 0.320265 20.9822 0.607932 21.3827C0.895599 21.7831 1.31948 22.0648 1.80006 22.175L8.98756 23.75L9.47506 28.175C9.53474 28.7088 9.804 29.1969 10.2236 29.5322C10.4314 29.6981 10.6698 29.8216 10.9253 29.8954C11.1808 29.9693 11.4483 29.9921 11.7126 29.9625C11.9768 29.933 12.2327 29.8516 12.4656 29.7232C12.6984 29.5948 12.9037 29.4217 13.0697 29.214C13.2357 29.0062 13.3591 28.7678 13.433 28.5123C13.5068 28.2568 13.5296 27.9893 13.5001 27.725L12.8501 21.875C12.8049 21.4508 12.6252 21.0522 12.3374 20.7373C12.0495 20.4225 11.6685 20.2079 11.2501 20.125L4.43756 18.5625L4.86256 14.125L6.61256 15.5375C6.96819 15.8213 7.40767 15.9795 7.86256 15.9875H14.1876C14.7246 15.9875 15.2397 15.7742 15.6195 15.3944C15.9992 15.0146 16.2126 14.4996 16.2126 13.9625C16.2126 13.4254 15.9992 12.9104 15.6195 12.5306C15.2397 12.1509 14.7246 11.9375 14.1876 11.9375L14.2126 11.9ZM24.5626 9.82501C24.44 9.80371 24.3144 9.80736 24.1933 9.83574C24.0721 9.86411 23.958 9.91663 23.8576 9.99015C23.7572 10.0637 23.6727 10.1567 23.6092 10.2636C23.5456 10.3706 23.5042 10.4892 23.4876 10.6125L22.6876 15.8875H18.6001C18.3525 15.894 18.1172 15.997 17.9444 16.1744C17.7716 16.3519 17.675 16.5898 17.6751 16.8375C17.6784 17.084 17.7786 17.3192 17.954 17.4924C18.1295 17.6655 18.3661 17.7625 18.6126 17.7625H23.5001C23.7212 17.762 23.9348 17.6823 24.1022 17.5378C24.2696 17.3933 24.3797 17.1937 24.4126 16.975L25.3376 10.9C25.3589 10.7783 25.3557 10.6536 25.3281 10.5332C25.3005 10.4129 25.2491 10.2992 25.1769 10.199C25.1046 10.0988 25.0131 10.0141 24.9075 9.94986C24.802 9.88563 24.6847 9.84317 24.5626 9.82501ZM29.0751 19.525H16.3251C16.1394 19.525 15.9614 19.5988 15.8301 19.73C15.6988 19.8613 15.6251 20.0394 15.6251 20.225V21.475C15.6251 21.6607 15.6988 21.8387 15.8301 21.97C15.9614 22.1013 16.1394 22.175 16.3251 22.175H17.9501L17.4001 28.8625C17.3898 28.9857 17.404 29.1097 17.4419 29.2274C17.4797 29.3451 17.5405 29.4541 17.6207 29.5482C17.7008 29.6423 17.7988 29.7196 17.909 29.7757C18.0191 29.8318 18.1393 29.8655 18.2626 29.875H18.3376C18.5729 29.8729 18.7991 29.7835 18.9723 29.6242C19.1455 29.4648 19.2534 29.2469 19.2751 29.0125L19.8376 22.1625H25.5626L26.1376 29.0125C26.1563 29.2458 26.2616 29.4636 26.4327 29.6232C26.6039 29.7828 26.8285 29.8726 27.0626 29.875H27.1501C27.2728 29.8656 27.3925 29.8318 27.502 29.7755C27.6116 29.7193 27.7088 29.6418 27.7879 29.5475C27.8671 29.4531 27.9266 29.344 27.9631 29.2264C27.9995 29.1088 28.0121 28.985 28.0001 28.8625L27.5001 22.15H29.1251C29.3107 22.15 29.4888 22.0763 29.62 21.945C29.7513 21.8137 29.8251 21.6357 29.8251 21.45V20.2C29.8219 20.1058 29.7998 20.0133 29.7601 19.9279C29.7203 19.8424 29.6638 19.7659 29.5937 19.7029C29.5237 19.6399 29.4417 19.5916 29.3525 19.561C29.2634 19.5305 29.169 19.5182 29.0751 19.525Z" fill="black"/>
<path d="M1.23756 3.35001C1.23756 4.22854 1.58656 5.07108 2.20777 5.6923C2.82899 6.31351 3.67153 6.66251 4.55006 6.66251C5.42859 6.66251 6.27114 6.31351 6.89235 5.6923C7.51357 5.07108 7.86256 4.22854 7.86256 3.35001C7.86256 2.47148 7.51357 1.62893 6.89235 1.00771C6.27114 0.386501 5.42859 0.0375061 4.55006 0.0375061C3.67153 0.0375061 2.82899 0.386501 2.20777 1.00771C1.58656 1.62893 1.23756 2.47148 1.23756 3.35001ZM14.2126 11.9H8.60006L4.47506 8.61251C4.18024 8.37347 3.82417 8.22211 3.44747 8.17568C3.07076 8.12925 2.6886 8.18962 2.34455 8.34991C2.00051 8.51021 1.70844 8.76397 1.50166 9.08224C1.29488 9.40052 1.18171 9.77051 1.17506 10.15L0.237563 20C0.188575 20.4906 0.320265 20.9822 0.607932 21.3827C0.895599 21.7831 1.31948 22.0648 1.80006 22.175L8.98756 23.75L9.47506 28.175C9.53474 28.7088 9.804 29.1969 10.2236 29.5322C10.4314 29.6981 10.6698 29.8216 10.9253 29.8954C11.1808 29.9693 11.4483 29.9921 11.7126 29.9625C11.9768 29.933 12.2327 29.8516 12.4656 29.7232C12.6984 29.5948 12.9037 29.4217 13.0697 29.214C13.2357 29.0062 13.3591 28.7678 13.433 28.5123C13.5068 28.2568 13.5296 27.9893 13.5001 27.725L12.8501 21.875C12.8049 21.4508 12.6252 21.0522 12.3374 20.7373C12.0495 20.4225 11.6685 20.2079 11.2501 20.125L4.43756 18.5625L4.86256 14.125L6.61256 15.5375C6.96819 15.8213 7.40767 15.9795 7.86256 15.9875H14.1876C14.7246 15.9875 15.2397 15.7742 15.6195 15.3944C15.9992 15.0146 16.2126 14.4996 16.2126 13.9625C16.2126 13.4254 15.9992 12.9104 15.6195 12.5306C15.2397 12.1509 14.7246 11.9375 14.1876 11.9375L14.2126 11.9ZM24.5626 9.82501C24.44 9.80371 24.3144 9.80736 24.1933 9.83574C24.0721 9.86411 23.958 9.91663 23.8576 9.99015C23.7572 10.0637 23.6727 10.1567 23.6092 10.2636C23.5456 10.3706 23.5042 10.4892 23.4876 10.6125L22.6876 15.8875H18.6001C18.3525 15.894 18.1172 15.997 17.9444 16.1744C17.7716 16.3519 17.675 16.5898 17.6751 16.8375C17.6784 17.084 17.7786 17.3192 17.954 17.4924C18.1295 17.6655 18.3661 17.7625 18.6126 17.7625H23.5001C23.7212 17.762 23.9348 17.6823 24.1022 17.5378C24.2696 17.3933 24.3797 17.1937 24.4126 16.975L25.3376 10.9C25.3589 10.7783 25.3557 10.6536 25.3281 10.5332C25.3005 10.4129 25.2491 10.2992 25.1769 10.199C25.1046 10.0988 25.0131 10.0141 24.9075 9.94986C24.802 9.88563 24.6847 9.84317 24.5626 9.82501ZM29.0751 19.525H16.3251C16.1394 19.525 15.9614 19.5988 15.8301 19.73C15.6988 19.8613 15.6251 20.0394 15.6251 20.225V21.475C15.6251 21.6607 15.6988 21.8387 15.8301 21.97C15.9614 22.1013 16.1394 22.175 16.3251 22.175H17.9501L17.4001 28.8625C17.3898 28.9857 17.404 29.1097 17.4419 29.2274C17.4797 29.3451 17.5405 29.4541 17.6207 29.5482C17.7008 29.6423 17.7988 29.7196 17.909 29.7757C18.0191 29.8318 18.1393 29.8655 18.2626 29.875H18.3376C18.5729 29.8729 18.7991 29.7835 18.9723 29.6242C19.1455 29.4648 19.2534 29.2469 19.2751 29.0125L19.8376 22.1625H25.5626L26.1376 29.0125C26.1563 29.2458 26.2616 29.4636 26.4327 29.6232C26.6039 29.7828 26.8285 29.8726 27.0626 29.875H27.1501C27.2728 29.8656 27.3925 29.8318 27.502 29.7755C27.6116 29.7193 27.7088 29.6418 27.7879 29.5475C27.8671 29.4531 27.9266 29.344 27.9631 29.2264C27.9995 29.1088 28.0121 28.985 28.0001 28.8625L27.5001 22.15H29.1251C29.3107 22.15 29.4888 22.0763 29.62 21.945C29.7513 21.8137 29.8251 21.6357 29.8251 21.45V20.2C29.8219 20.1058 29.7998 20.0133 29.7601 19.9279C29.7203 19.8424 29.6638 19.7659 29.5937 19.7029C29.5237 19.6399 29.4417 19.5916 29.3525 19.561C29.2634 19.5305 29.169 19.5182 29.0751 19.525Z" fill="black"/>
</g>
<defs>
<clipPath id="clip0_20_896">
<rect width="30" height="30" fill="white"/>
</clipPath>
</defs>
</svg>
